<?xml version="1.0"?>
<svg width="376" height="146" xmlns="http://www.w3.org/2000/svg">
 <style type="text/css">.st0{fill:#00416B;}
	.st1{fill:#FF6B00;}</style>

 <g>
  <title>background</title>
  <rect fill="none" id="canvas_background" height="148" width="378" y="-1" x="-1"/>
 </g>
 <g>
  <title>Layer 1</title>
  <g id="svg_1">
   <g id="svg_2">
    <path id="svg_3" d="m75.600006,110.299988c0,5.5 -1,10.5 -3,15c-2,4.5 -4.699982,8.299988 -8.100006,11.399994c-3.399994,3.100006 -7.399994,5.5 -11.899994,7.300018c-4.5,1.699982 -9.399994,2.599976 -14.5,2.599976c-5.099991,0 -9.899994,-0.899994 -14.5,-2.599976c-4.599991,-1.700012 -8.5,-4.100006 -11.899994,-7.300018c-3.400009,-3.100006 -6.100006,-6.899994 -8.100006,-11.399994c-2,-4.5 -3,-9.5 -3,-15c0,-5.5 1,-10.5 3,-14.899994c2,-4.399994 4.699997,-8.200012 8.100006,-11.300018c3.399994,-3.099976 7.399994,-5.399994 11.899994,-7.099976c4.600006,-1.600006 9.400009,-2.400024 14.5,-2.400024c5.199997,0 10,0.800018 14.5,2.400024c4.5,1.599976 8.5,4 11.899994,7.099976c3.400024,3.100006 6.200012,6.800018 8.100006,11.300018c2,4.399994 3,9.399994 3,14.899994zm-21.399994,0c0,-2.200012 -0.399994,-4.299988 -1.100006,-6.399994c-0.699982,-2.100006 -1.799988,-3.899994 -3.100006,-5.5c-1.399994,-1.600006 -2.999985,-2.899994 -4.999985,-3.899994c-2,-1 -4.300003,-1.5 -6.900009,-1.5c-2.599991,0 -4.899994,0.5 -6.899994,1.5c-2,1 -3.600006,2.299988 -5,3.899994c-1.300003,1.600006 -2.300003,3.399994 -3,5.5c-0.699997,2.100006 -1,4.199982 -1,6.399994s0.300003,4.299988 1,6.399994c0.699997,2.100006 1.699997,4 3.099991,5.600006c1.400009,1.700012 3,3 5,4c2,1 4.300003,1.5 6.900009,1.5c2.599991,0 4.899994,-0.5 6.899994,-1.5c2,-1 3.700012,-2.299988 5,-4c1.399994,-1.700012 2.399994,-3.5 3.100006,-5.600006c0.599976,-2.099976 1,-4.199982 1,-6.399994z" class="st0"/>
    <path id="svg_4" d="m168.5,144.399994l0,-36.899994c0,-1.900024 -0.100006,-3.700012 -0.399994,-5.5s-0.800018,-3.300018 -1.5,-4.5c-0.700012,-1.300018 -1.700012,-2.300018 -2.899994,-3.100006c-1.200012,-0.800018 -2.800018,-1.200012 -4.800018,-1.200012c-1.899994,0 -3.600006,0.399994 -5,1.200012c-1.399994,0.799988 -2.600006,1.899994 -3.5,3.299988c-0.899994,1.399994 -1.699982,2.899994 -2.100006,4.700012c-0.5,1.799988 -0.699982,3.600006 -0.699982,5.5l0,36.5l-22.300018,0l0,-38.5c0,-3.899994 -0.799988,-7 -2.299988,-9.200012c-1.5,-2.299988 -4,-3.399994 -7.299988,-3.399994c-3.5,0 -6.300018,1.399994 -8.200012,4.200012c-1.899994,2.799988 -2.899994,6.199982 -2.899994,10.299988l0,36.600006l-22.399994,0l0,-67.600006l21.599976,0l0,9.399994l0.300018,0c0.799988,-1.399994 1.799988,-2.899994 3.100006,-4.199982c1.199982,-1.400024 2.699982,-2.600006 4.399994,-3.600006c1.699982,-1 3.600006,-1.899994 5.799988,-2.5c2.100006,-0.600006 4.5,-0.899994 7,-0.899994c4.899994,0 9,1 12.399994,3c3.400024,2 6,4.799988 7.900024,8.5c2.299988,-3.5 5.199982,-6.300018 8.699982,-8.400024c3.5,-2.099976 7.800018,-3.099976 12.899994,-3.099976c4.600006,0 8.5,0.799988 11.600006,2.5c3.100006,1.699982 5.600006,3.799988 7.5,6.5c1.899994,2.699982 3.300018,5.699982 4.100006,9c0.899994,3.299988 1.299988,6.5 1.299988,9.699982l0,41.800018l-22.299988,0l0,-0.100006z" class="st0"/>
    <path id="svg_5" d="m241.799988,144.399994l0,-36.899994c0,-1.900024 -0.200012,-3.700012 -0.5,-5.400024c-0.299988,-1.699982 -0.799988,-3.199982 -1.600006,-4.5c-0.699982,-1.299988 -1.699982,-2.399994 -3.100006,-3.099976c-1.299988,-0.800018 -3,-1.200012 -5,-1.200012c-2,0 -3.699982,0.399994 -5.199982,1.200012c-1.5,0.799988 -2.700012,1.799988 -3.700012,3.199982c-1,1.399994 -1.699982,2.899994 -2.199982,4.700012c-0.5,1.799988 -0.700012,3.600006 -0.700012,5.5l0,36.600006l-22.399994,0l0,-67.600006l21.600006,0l0,9.399994l0.299988,0c0.800018,-1.399994 1.900024,-2.899994 3.200012,-4.299988c1.299988,-1.400024 2.799988,-2.600006 4.600006,-3.600006c1.799988,-1 3.699982,-1.800018 5.799988,-2.399994c2.100006,-0.600006 4.300018,-0.900024 6.700012,-0.900024c4.5,0 8.399994,0.800018 11.5,2.400024c3.199982,1.599976 5.699982,3.699982 7.699982,6.299988c1.900024,2.600006 3.300018,5.5 4.200012,8.899994c0.899994,3.300018 1.299988,6.700012 1.299988,10l0,41.800018l-22.5,0l0,-0.100006z" class="st0"/>
   </g>
   <g id="svg_6">
    <path id="svg_7" d="m272.399994,81l0,63.399994l22.299988,0l0,-62.600006c-3.199982,1.400024 -6.699982,2.100006 -10.299988,2.100006c-4.399994,0 -8.399994,-1.100006 -12,-2.899994z" class="st0"/>
   </g>
   <g id="svg_8">
    <path id="svg_9" d="m356.599976,59.799988c-1.599976,0 -3.099976,0.200012 -4.599976,0.600006l-6.5,-11.400009c3.699951,-3.399994 6,-8.399994 6,-13.799988c0,-10.400009 -8.5,-18.900009 -18.900024,-18.900009s-18.900024,8.5 -18.900024,18.900009c0,1.399994 0.200012,2.799988 0.5,4.199997l-17.399963,8.599991c1.600006,2.099991 2.799988,4.500015 3.299988,7.300003l17.5,-8.699997c3.400024,4.499985 8.900024,7.499985 15,7.499985c2.099976,0 4.099976,-0.399994 6,-1l6.200012,10.900024c-4.299988,3.5 -7.100037,8.799988 -7.100037,14.699982c0,10.399994 8.5,18.899994 18.900024,18.899994s18.900024,-8.5 18.900024,-18.899994s-8.5,-18.899994 -18.900024,-18.899994z" class="st1"/>
    <g id="svg_10">
     <path id="svg_11" d="m278,43.300003l-14.399994,-19c2.299988,-2.400009 3.799988,-5.699997 3.799988,-9.300003c0,-7.300003 -5.899994,-13.300003 -13.299988,-13.300003c-7.300018,0 -13.300018,5.900009 -13.300018,13.300003c0,7.300003 5.900024,13.300003 13.300018,13.300003c0.799988,0 1.600006,-0.100006 2.299988,-0.199997l15.300018,20.199997c1.599976,-2.199997 3.799988,-3.900009 6.299988,-5z" class="st1"/>
     <path id="svg_12" d="m284.299988,42c-2.299988,0 -4.399994,0.5 -6.399994,1.300003c-2.5,1.099991 -4.700012,2.800003 -6.300018,5c-2,2.699997 -3.299988,5.999985 -3.299988,9.599991c0,8.800018 7.100006,15.899994 15.899994,15.899994c8.800018,0 15.899994,-7.099976 15.899994,-15.899994c0.100037,-8.799988 -6.999969,-15.899994 -15.799988,-15.899994z" class="st0"/>
    </g>
   </g>
  </g>
 </g>
</svg>